<svg xmlns="http://www.w3.org/2000/svg" viewBox="0 0 64 64" fill="none">
  <defs>
    <linearGradient id="g" x1="0" y1="0" x2="1" y2="1">
      <stop offset="0%" stop-color="#2dd4bf"/>
      <stop offset="100%" stop-color="#059669"/>
    </linearGradient>
  </defs>
  <!-- Left hand -->
  <path d="M18 38 C18 38 12 32 12 26 C12 23.8 13.8 22 16 22 C16.7 22 17.4 22.2 18 22.6
           L18 18 C18 15.8 19.8 14 22 14 C22.7 14 23.4 14.2 24 14.6
           C24.4 13.1 25.8 12 27.5 12 C29.2 12 30.6 13.1 31 14.6
           C31.6 14.2 32.3 14 33 14 C35.2 14 37 15.8 37 18 L37 26
           C37.6 25.6 38.3 25.4 39 25.4 C41.2 25.4 43 27.2 43 29.4
           L43 36 C43 42 38 48 32 50 C26 48 18 42 18 38 Z"
        fill="url(#g)" opacity="0.15" stroke="url(#g)" stroke-width="2" stroke-linejoin="round"/>
  <!-- Fingers left hand -->
  <line x1="24" y1="14" x2="24" y2="28" stroke="url(#g)" stroke-width="2.5" stroke-linecap="round"/>
  <line x1="28" y1="12" x2="28" y2="28" stroke="url(#g)" stroke-width="2.5" stroke-linecap="round"/>
  <line x1="32" y1="14" x2="32" y2="28" stroke="url(#g)" stroke-width="2.5" stroke-linecap="round"/>
  <line x1="36" y1="18" x2="36" y2="28" stroke="url(#g)" stroke-width="2.5" stroke-linecap="round"/>
  <line x1="20" y1="22" x2="20" y2="30" stroke="url(#g)" stroke-width="2.5" stroke-linecap="round"/>
  <!-- Palm -->
  <path d="M18 30 Q18 46 32 50 Q46 46 46 30 L46 30 L18 30 Z" fill="url(#g)" opacity="0.2"/>
  <path d="M18 30 Q18 46 32 50 Q46 46 46 30" stroke="url(#g)" stroke-width="2" fill="none" stroke-linecap="round"/>
</svg>
